<svg xmlns="http://www.w3.org/2000/svg" viewBox="0 0 1000.1 905" enable-background="new 0 0 1000.1 905"><path fill="#34495e" fill-rule="evenodd" clip-rule="evenodd" d="M698.7 331.8c13.6-9.2 15.2-37.6-.4-59.5-15.5-21.8-39.1-22.5-52.7-13.3-13.6 9.2-12 37.5 3.5 59.3 15.6 21.8 36.1 22.7 49.6 13.5zm-201 2.1c-15.9 10.6-14 43.1 4.1 68.2 18.2 25.1 42.1 26.1 58 15.5 15.9-10.6 17.8-43.3-.4-68.4-18.2-25.1-45.8-25.9-61.7-15.3zm98.6-186.3c-30 .4-59.1 4.3-87 11.1-1.3-2.2-2.8-4.5-4.7-6.9-13.2-16.6-31.3-45.2-97-51.3-53.6-5-63.8 23.5-70.9 11C300.7 47.7 187.5 1.6 187.5 1.6s1.7 15.2 14.9 69.6c13.3 54.4 46.9 109.9 85.8 131.8 28 15.8 58.7 18.8 86.4 16.4-21.6 14.9-41.7 31.6-60 49.9-6.7-15.8-46.4-40.4-98.2-46.3-52.3-6-64.5 24.1-69.2 10.8C128 180 1.4 125.7 1.4 125.7s1.6 15 14.6 68.4c13 53.5 49.4 102.7 83.8 129.7 34.4 27 84.3 24.4 116.6 10.8 24.3-10.2 40.8-7.1 47.6-5-42.2 60.8-67.2 130.7-69.2 199.3-5.8 204.5 168.8 384 401.5 374.1 184.2-7.8 385.9-159.8 401.5-374.1 14-192.5-137.6-385.1-401.5-381.3zm11 686.1c-154.5 4.5-330.5-64.1-344.6-273.8C248.8 352.7 456.6 215.7 610.9 217c114.8.9 253 52.2 294.6 192.2-28.5-45.1-75-74.3-141.3-68.1-110.5 10.4-181.5 90-178.8 200.7 2.4 102.5 78 190.2 197.1 189.8 20.9-.1 40.6-5.7 58.4-15.4-61.6 72.8-150.8 115.1-233.6 117.5zm178.8-167.9c-79.6 1.9-131.4-76-131.4-131.4 0-95.8 79.6-135 135-135 81.9 0 127.7 83.2 127.7 138.7S864.3 664 786.1 665.8zm3.9-185.1c-9 8-8.9 23.4 4.8 38.9s32.8 22.7 38.7 14.8c6.6-8.8 4-28.3-9.7-43.8-13.6-15.4-24.8-17.9-33.8-9.9zm-58.4 47.5c-9 8-8.9 23.4 4.8 38.9s32.8 22.7 38.7 14.8c6.6-8.8 4-28.3-9.7-43.8-13.6-15.5-24.8-17.9-33.8-9.9z"/></svg>