<svg xmlns="http://www.w3.org/2000/svg" xmlns:xlink="http://www.w3.org/1999/xlink" viewBox="0 23 65 80" enable-background="new 0 23 65 80"><path fill="#D48A6D" d="M18 71h-8c-1.1 0-2 1-2 2.1v24.7c0 1.2.9 2.1 2 2.1h8c1.1 0 2-1 2-2.1V73.1c0-1.2-.9-2.1-2-2.1zm38 0h-8c-1.1 0-2 1-2 2.1v24.7c0 1.2.9 2.1 2 2.1h8c1.1 0 2-1 2-2.1V73.1c0-1.2-.9-2.1-2-2.1z"/><path fill="#DF9274" d="M58.8 42.2c2.9-3.7 4.2-9.7 4.2-9.7L49.5 23s-1.2 4.7-1.5 9.8c-4.5-2.4-9.5-3.8-15-3.8-5.8 0-11.3 1.5-16.1 4.2C16.7 28 15.4 23 15.4 23L2 32.5s1.4 6.3 4.4 10c-4 5.4-6.4 11.9-6.4 19C0 79.2 15.1 94 33 94c18 0 32-14.8 32-32.5 0-7.2-2.3-13.9-6.2-19.3z"/><path fill="#E9B39E" d="M32.5 54C39.4 54 45 58.5 45 64s-5.6 10-12.5 10S20 69.5 20 64s5.6-10 12.5-10z"/><path fill="#BA8F7E" d="M27 60c1.1 0 2 .9 2 2v4c0 1.1-.9 2-2 2s-2-.9-2-2v-4c0-1.1.9-2 2-2zm11 0c1.1 0 2 .9 2 2v4c0 1.1-.9 2-2 2s-2-.9-2-2v-4c0-1.1.9-2 2-2z"/><path fill="#B2755D" d="M32.5 84.2c-6.9 0-9.5-3.8-9.7-4.3-.4-.7-.2-1.6.5-2.1.7-.4 1.6-.2 2.1.5.1.1 1.9 2.8 7.1 2.8s7.1-2.7 7.1-2.8c.4-.7 1.3-.9 2-.5.6.4.9 1 .7 1.7 0 .1-.1.3-.2.4-.2.6-2.7 4.3-9.6 4.3z"/><path fill="#fff" d="M20.1 45c2.2 0 3.9 1.8 3.9 4s-1.7 4-3.9 4-4.1-1.8-4.1-4 1.9-4 4.1-4z"/><path fill="#2C3E50" d="M20 47c1.1 0 2 .9 2 2s-.9 2-2 2-2-.9-2-2 .9-2 2-2z"/><path fill="#fff" d="M45.1 45c2.2 0 3.9 1.8 3.9 4s-1.7 4-3.9 4-4.1-1.8-4.1-4 1.9-4 4.1-4z"/><path fill="#2C3E50" d="M45 47c1.1 0 2 .9 2 2s-.9 2-2 2-2-.9-2-2 .9-2 2-2z"/><path fill="#C9816B" d="M60.1 33.5l-8.3-5.8s-3 11.7 1.7 13.3c4.6 1.7 6.6-7.5 6.6-7.5z"/><defs><path id="a" d="M18 71h-8c-1.1 0-2 1-2 2.1v24.7c0 1.2.9 2.1 2 2.1h8c1.1 0 2-1 2-2.1V73.1c0-1.2-.9-2.1-2-2.1zm38 0h-8c-1.1 0-2 1-2 2.1v24.7c0 1.2.9 2.1 2 2.1h8c1.1 0 2-1 2-2.1V73.1c0-1.2-.9-2.1-2-2.1z"/></defs><clipPath id="b"><use xlink:href="#a" overflow="visible"/></clipPath><path clip-path="url(#b)" fill="#EBEDEE" d="M49 97c-1.7 0-3 1.3-3 3s1.3 3 3 3 3-1.3 3-3-1.3-3-3-3zm6 0c-1.7 0-3 1.3-3 3s1.3 3 3 3 3-1.3 3-3-1.3-3-3-3zm-44 0c-1.7 0-3 1.3-3 3s1.3 3 3 3 3-1.3 3-3-1.3-3-3-3zm6 0c-1.7 0-3 1.3-3 3s1.3 3 3 3 3-1.3 3-3-1.3-3-3-3z"/><path fill="#C9816B" d="M11.5 41c4.6-1.7 1.7-13.3 1.7-13.3l-8.3 5.8s2 9.2 6.6 7.5z"/></svg>